<mxfile host="app.diagrams.net" modified="2024-02-28T01:15:58.311Z" agent="Mozilla/5.0 (Windows NT 10.0; Win64; x64) AppleWebKit/537.36 (KHTML, like Gecko) Chrome/122.0.0.0 Safari/537.36" etag="zPu4e_pCFcHBgJbrw-_y" version="23.1.7" type="device">
  <diagram name="Page-1" id="e7e014a7-5840-1c2e-5031-d8a46d1fe8dd">
    <mxGraphModel dx="800" dy="460" grid="1" gridSize="10" guides="1" tooltips="1" connect="1" arrows="1" fold="1" page="1" pageScale="1" pageWidth="1169" pageHeight="826" background="none" math="0" shadow="0">
      <root>
        <mxCell id="0" />
        <mxCell id="1" parent="0" />
        <mxCell id="cyoJXU-WO3Ss5TMpzt__-55" style="edgeStyle=orthogonalEdgeStyle;rounded=0;orthogonalLoop=1;jettySize=auto;html=1;entryX=0;entryY=0.5;entryDx=0;entryDy=0;" edge="1" parent="1" source="cyoJXU-WO3Ss5TMpzt__-41" target="cyoJXU-WO3Ss5TMpzt__-44">
          <mxGeometry relative="1" as="geometry" />
        </mxCell>
        <mxCell id="cyoJXU-WO3Ss5TMpzt__-41" value="" style="ellipse;fillColor=strokeColor;html=1;" vertex="1" parent="1">
          <mxGeometry x="190" y="100" width="30" height="30" as="geometry" />
        </mxCell>
        <mxCell id="cyoJXU-WO3Ss5TMpzt__-42" value="Start" style="text;html=1;align=center;verticalAlign=middle;resizable=0;points=[];autosize=1;strokeColor=none;fillColor=none;" vertex="1" parent="1">
          <mxGeometry x="180" y="130" width="50" height="30" as="geometry" />
        </mxCell>
        <mxCell id="cyoJXU-WO3Ss5TMpzt__-43" value="Check user level&lt;br&gt;and Permission" style="rounded=1;whiteSpace=wrap;html=1;" vertex="1" parent="1">
          <mxGeometry x="440" y="180" width="120" height="45" as="geometry" />
        </mxCell>
        <mxCell id="cyoJXU-WO3Ss5TMpzt__-54" value="" style="edgeStyle=orthogonalEdgeStyle;rounded=0;orthogonalLoop=1;jettySize=auto;html=1;" edge="1" parent="1" source="cyoJXU-WO3Ss5TMpzt__-44" target="cyoJXU-WO3Ss5TMpzt__-43">
          <mxGeometry relative="1" as="geometry" />
        </mxCell>
        <mxCell id="cyoJXU-WO3Ss5TMpzt__-44" value="Login to Railway&lt;br&gt;Reservation System" style="rounded=1;whiteSpace=wrap;html=1;" vertex="1" parent="1">
          <mxGeometry x="442.5" y="92.5" width="120" height="45" as="geometry" />
        </mxCell>
        <mxCell id="cyoJXU-WO3Ss5TMpzt__-64" style="edgeStyle=orthogonalEdgeStyle;rounded=0;orthogonalLoop=1;jettySize=auto;html=1;" edge="1" parent="1" target="cyoJXU-WO3Ss5TMpzt__-46">
          <mxGeometry relative="1" as="geometry">
            <mxPoint x="318.75" y="300" as="sourcePoint" />
          </mxGeometry>
        </mxCell>
        <mxCell id="cyoJXU-WO3Ss5TMpzt__-46" value="Check&lt;br&gt;Permission" style="rhombus;whiteSpace=wrap;html=1;" vertex="1" parent="1">
          <mxGeometry x="278.75" y="340" width="80" height="80" as="geometry" />
        </mxCell>
        <mxCell id="cyoJXU-WO3Ss5TMpzt__-60" style="edgeStyle=orthogonalEdgeStyle;rounded=0;orthogonalLoop=1;jettySize=auto;html=1;exitX=0.5;exitY=1;exitDx=0;exitDy=0;" edge="1" parent="1" source="cyoJXU-WO3Ss5TMpzt__-47" target="cyoJXU-WO3Ss5TMpzt__-51">
          <mxGeometry relative="1" as="geometry" />
        </mxCell>
        <mxCell id="cyoJXU-WO3Ss5TMpzt__-47" value="&#xa;&lt;span style=&quot;color: rgb(0, 0, 0); font-family: Helvetica; font-size: 12px; font-style: normal; font-variant-ligatures: normal; font-variant-caps: normal; font-weight: 400; letter-spacing: normal; orphans: 2; text-align: center; text-indent: 0px; text-transform: none; widows: 2; word-spacing: 0px; -webkit-text-stroke-width: 0px; background-color: rgb(251, 251, 251); text-decoration-thickness: initial; text-decoration-style: initial; text-decoration-color: initial; float: none; display: inline !important;&quot;&gt;Check&lt;/span&gt;&lt;br style=&quot;border-color: var(--border-color); color: rgb(0, 0, 0); font-family: Helvetica; font-size: 12px; font-style: normal; font-variant-ligatures: normal; font-variant-caps: normal; font-weight: 400; letter-spacing: normal; orphans: 2; text-align: center; text-indent: 0px; text-transform: none; widows: 2; word-spacing: 0px; -webkit-text-stroke-width: 0px; background-color: rgb(251, 251, 251); text-decoration-thickness: initial; text-decoration-style: initial; text-decoration-color: initial;&quot;&gt;&lt;span style=&quot;color: rgb(0, 0, 0); font-family: Helvetica; font-size: 12px; font-style: normal; font-variant-ligatures: normal; font-variant-caps: normal; font-weight: 400; letter-spacing: normal; orphans: 2; text-align: center; text-indent: 0px; text-transform: none; widows: 2; word-spacing: 0px; -webkit-text-stroke-width: 0px; background-color: rgb(251, 251, 251); text-decoration-thickness: initial; text-decoration-style: initial; text-decoration-color: initial; float: none; display: inline !important;&quot;&gt;Permission&lt;/span&gt;&#xa;&#xa;" style="rhombus;whiteSpace=wrap;html=1;" vertex="1" parent="1">
          <mxGeometry x="428.75" y="340" width="80" height="80" as="geometry" />
        </mxCell>
        <mxCell id="cyoJXU-WO3Ss5TMpzt__-62" style="edgeStyle=orthogonalEdgeStyle;rounded=0;orthogonalLoop=1;jettySize=auto;html=1;entryX=0.5;entryY=0;entryDx=0;entryDy=0;" edge="1" parent="1" source="cyoJXU-WO3Ss5TMpzt__-48" target="cyoJXU-WO3Ss5TMpzt__-52">
          <mxGeometry relative="1" as="geometry" />
        </mxCell>
        <mxCell id="cyoJXU-WO3Ss5TMpzt__-48" value="&#xa;&lt;span style=&quot;color: rgb(0, 0, 0); font-family: Helvetica; font-size: 12px; font-style: normal; font-variant-ligatures: normal; font-variant-caps: normal; font-weight: 400; letter-spacing: normal; orphans: 2; text-align: center; text-indent: 0px; text-transform: none; widows: 2; word-spacing: 0px; -webkit-text-stroke-width: 0px; background-color: rgb(251, 251, 251); text-decoration-thickness: initial; text-decoration-style: initial; text-decoration-color: initial; float: none; display: inline !important;&quot;&gt;Check&lt;/span&gt;&lt;br style=&quot;border-color: var(--border-color); color: rgb(0, 0, 0); font-family: Helvetica; font-size: 12px; font-style: normal; font-variant-ligatures: normal; font-variant-caps: normal; font-weight: 400; letter-spacing: normal; orphans: 2; text-align: center; text-indent: 0px; text-transform: none; widows: 2; word-spacing: 0px; -webkit-text-stroke-width: 0px; background-color: rgb(251, 251, 251); text-decoration-thickness: initial; text-decoration-style: initial; text-decoration-color: initial;&quot;&gt;&lt;span style=&quot;color: rgb(0, 0, 0); font-family: Helvetica; font-size: 12px; font-style: normal; font-variant-ligatures: normal; font-variant-caps: normal; font-weight: 400; letter-spacing: normal; orphans: 2; text-align: center; text-indent: 0px; text-transform: none; widows: 2; word-spacing: 0px; -webkit-text-stroke-width: 0px; background-color: rgb(251, 251, 251); text-decoration-thickness: initial; text-decoration-style: initial; text-decoration-color: initial; float: none; display: inline !important;&quot;&gt;Permission&lt;/span&gt;&#xa;&#xa;" style="rhombus;whiteSpace=wrap;html=1;" vertex="1" parent="1">
          <mxGeometry x="560" y="340" width="80" height="80" as="geometry" />
        </mxCell>
        <mxCell id="cyoJXU-WO3Ss5TMpzt__-63" style="edgeStyle=orthogonalEdgeStyle;rounded=0;orthogonalLoop=1;jettySize=auto;html=1;entryX=0.5;entryY=0;entryDx=0;entryDy=0;" edge="1" parent="1" source="cyoJXU-WO3Ss5TMpzt__-49" target="cyoJXU-WO3Ss5TMpzt__-53">
          <mxGeometry relative="1" as="geometry" />
        </mxCell>
        <mxCell id="cyoJXU-WO3Ss5TMpzt__-49" value="&#xa;&lt;span style=&quot;color: rgb(0, 0, 0); font-family: Helvetica; font-size: 12px; font-style: normal; font-variant-ligatures: normal; font-variant-caps: normal; font-weight: 400; letter-spacing: normal; orphans: 2; text-align: center; text-indent: 0px; text-transform: none; widows: 2; word-spacing: 0px; -webkit-text-stroke-width: 0px; background-color: rgb(251, 251, 251); text-decoration-thickness: initial; text-decoration-style: initial; text-decoration-color: initial; float: none; display: inline !important;&quot;&gt;Check&lt;/span&gt;&lt;br style=&quot;border-color: var(--border-color); color: rgb(0, 0, 0); font-family: Helvetica; font-size: 12px; font-style: normal; font-variant-ligatures: normal; font-variant-caps: normal; font-weight: 400; letter-spacing: normal; orphans: 2; text-align: center; text-indent: 0px; text-transform: none; widows: 2; word-spacing: 0px; -webkit-text-stroke-width: 0px; background-color: rgb(251, 251, 251); text-decoration-thickness: initial; text-decoration-style: initial; text-decoration-color: initial;&quot;&gt;&lt;span style=&quot;color: rgb(0, 0, 0); font-family: Helvetica; font-size: 12px; font-style: normal; font-variant-ligatures: normal; font-variant-caps: normal; font-weight: 400; letter-spacing: normal; orphans: 2; text-align: center; text-indent: 0px; text-transform: none; widows: 2; word-spacing: 0px; -webkit-text-stroke-width: 0px; background-color: rgb(251, 251, 251); text-decoration-thickness: initial; text-decoration-style: initial; text-decoration-color: initial; float: none; display: inline !important;&quot;&gt;Permission&lt;/span&gt;&#xa;&#xa;" style="rhombus;whiteSpace=wrap;html=1;" vertex="1" parent="1">
          <mxGeometry x="698.75" y="330" width="80" height="80" as="geometry" />
        </mxCell>
        <mxCell id="cyoJXU-WO3Ss5TMpzt__-59" style="edgeStyle=orthogonalEdgeStyle;rounded=0;orthogonalLoop=1;jettySize=auto;html=1;exitX=0.5;exitY=1;exitDx=0;exitDy=0;" edge="1" parent="1" source="cyoJXU-WO3Ss5TMpzt__-46" target="cyoJXU-WO3Ss5TMpzt__-50">
          <mxGeometry relative="1" as="geometry" />
        </mxCell>
        <mxCell id="cyoJXU-WO3Ss5TMpzt__-75" style="edgeStyle=orthogonalEdgeStyle;rounded=0;orthogonalLoop=1;jettySize=auto;html=1;" edge="1" parent="1" source="cyoJXU-WO3Ss5TMpzt__-50">
          <mxGeometry relative="1" as="geometry">
            <mxPoint x="318.75" y="549.9999999999999" as="targetPoint" />
          </mxGeometry>
        </mxCell>
        <mxCell id="cyoJXU-WO3Ss5TMpzt__-50" value="Manage Train" style="rounded=1;whiteSpace=wrap;html=1;" vertex="1" parent="1">
          <mxGeometry x="270" y="470" width="97.5" height="30" as="geometry" />
        </mxCell>
        <mxCell id="cyoJXU-WO3Ss5TMpzt__-76" style="edgeStyle=orthogonalEdgeStyle;rounded=0;orthogonalLoop=1;jettySize=auto;html=1;" edge="1" parent="1" source="cyoJXU-WO3Ss5TMpzt__-51">
          <mxGeometry relative="1" as="geometry">
            <mxPoint x="468.75" y="549.9999999999999" as="targetPoint" />
          </mxGeometry>
        </mxCell>
        <mxCell id="cyoJXU-WO3Ss5TMpzt__-51" value="Manage Booking" style="rounded=1;whiteSpace=wrap;html=1;" vertex="1" parent="1">
          <mxGeometry x="420" y="470" width="97.5" height="30" as="geometry" />
        </mxCell>
        <mxCell id="cyoJXU-WO3Ss5TMpzt__-77" style="edgeStyle=orthogonalEdgeStyle;rounded=0;orthogonalLoop=1;jettySize=auto;html=1;" edge="1" parent="1" source="cyoJXU-WO3Ss5TMpzt__-52">
          <mxGeometry relative="1" as="geometry">
            <mxPoint x="600" y="549.9999999999999" as="targetPoint" />
          </mxGeometry>
        </mxCell>
        <mxCell id="cyoJXU-WO3Ss5TMpzt__-52" value="Manage customer" style="rounded=1;whiteSpace=wrap;html=1;" vertex="1" parent="1">
          <mxGeometry x="551.25" y="470" width="97.5" height="30" as="geometry" />
        </mxCell>
        <mxCell id="cyoJXU-WO3Ss5TMpzt__-78" style="edgeStyle=orthogonalEdgeStyle;rounded=0;orthogonalLoop=1;jettySize=auto;html=1;" edge="1" parent="1" source="cyoJXU-WO3Ss5TMpzt__-53">
          <mxGeometry relative="1" as="geometry">
            <mxPoint x="738.75" y="539.9999999999999" as="targetPoint" />
          </mxGeometry>
        </mxCell>
        <mxCell id="cyoJXU-WO3Ss5TMpzt__-53" value="Manage Payment" style="rounded=1;whiteSpace=wrap;html=1;" vertex="1" parent="1">
          <mxGeometry x="690" y="460" width="97.5" height="30" as="geometry" />
        </mxCell>
        <mxCell id="cyoJXU-WO3Ss5TMpzt__-79" style="edgeStyle=orthogonalEdgeStyle;rounded=0;orthogonalLoop=1;jettySize=auto;html=1;entryX=0.417;entryY=0.985;entryDx=0;entryDy=0;entryPerimeter=0;" edge="1" parent="1" source="cyoJXU-WO3Ss5TMpzt__-56" target="cyoJXU-WO3Ss5TMpzt__-43">
          <mxGeometry relative="1" as="geometry">
            <mxPoint x="490.625" y="200" as="targetPoint" />
          </mxGeometry>
        </mxCell>
        <mxCell id="cyoJXU-WO3Ss5TMpzt__-56" value="" style="line;strokeWidth=2;html=1;" vertex="1" parent="1">
          <mxGeometry x="151.25" y="280" width="678.75" height="10" as="geometry" />
        </mxCell>
        <mxCell id="cyoJXU-WO3Ss5TMpzt__-66" style="edgeStyle=orthogonalEdgeStyle;rounded=0;orthogonalLoop=1;jettySize=auto;html=1;" edge="1" parent="1">
          <mxGeometry relative="1" as="geometry">
            <mxPoint x="468.52" y="340" as="targetPoint" />
            <mxPoint x="468.77" y="300" as="sourcePoint" />
            <Array as="points">
              <mxPoint x="468.77" y="310" />
              <mxPoint x="468.77" y="310" />
            </Array>
          </mxGeometry>
        </mxCell>
        <mxCell id="cyoJXU-WO3Ss5TMpzt__-67" style="edgeStyle=orthogonalEdgeStyle;rounded=0;orthogonalLoop=1;jettySize=auto;html=1;" edge="1" parent="1">
          <mxGeometry relative="1" as="geometry">
            <mxPoint x="599.77" y="340" as="targetPoint" />
            <mxPoint x="600.02" y="300" as="sourcePoint" />
            <Array as="points">
              <mxPoint x="600.02" y="310" />
              <mxPoint x="600.02" y="310" />
            </Array>
          </mxGeometry>
        </mxCell>
        <mxCell id="cyoJXU-WO3Ss5TMpzt__-68" style="edgeStyle=orthogonalEdgeStyle;rounded=0;orthogonalLoop=1;jettySize=auto;html=1;" edge="1" parent="1">
          <mxGeometry relative="1" as="geometry">
            <mxPoint x="738.52" y="330" as="targetPoint" />
            <mxPoint x="738.77" y="290" as="sourcePoint" />
            <Array as="points">
              <mxPoint x="738.77" y="300" />
              <mxPoint x="738.77" y="300" />
            </Array>
          </mxGeometry>
        </mxCell>
        <mxCell id="cyoJXU-WO3Ss5TMpzt__-74" style="edgeStyle=orthogonalEdgeStyle;rounded=0;orthogonalLoop=1;jettySize=auto;html=1;entryX=0.5;entryY=0;entryDx=0;entryDy=0;" edge="1" parent="1" source="cyoJXU-WO3Ss5TMpzt__-69" target="cyoJXU-WO3Ss5TMpzt__-70">
          <mxGeometry relative="1" as="geometry" />
        </mxCell>
        <mxCell id="cyoJXU-WO3Ss5TMpzt__-69" value="" style="line;strokeWidth=2;html=1;" vertex="1" parent="1">
          <mxGeometry x="160" y="560" width="680" height="10" as="geometry" />
        </mxCell>
        <mxCell id="cyoJXU-WO3Ss5TMpzt__-73" style="edgeStyle=orthogonalEdgeStyle;rounded=0;orthogonalLoop=1;jettySize=auto;html=1;entryX=0;entryY=0.5;entryDx=0;entryDy=0;" edge="1" parent="1" source="cyoJXU-WO3Ss5TMpzt__-70" target="cyoJXU-WO3Ss5TMpzt__-71">
          <mxGeometry relative="1" as="geometry" />
        </mxCell>
        <mxCell id="cyoJXU-WO3Ss5TMpzt__-70" value="Logout from the syste," style="rounded=1;whiteSpace=wrap;html=1;" vertex="1" parent="1">
          <mxGeometry x="450.62" y="630" width="98.75" height="30" as="geometry" />
        </mxCell>
        <mxCell id="cyoJXU-WO3Ss5TMpzt__-71" value="" style="ellipse;html=1;shape=endState;fillColor=strokeColor;" vertex="1" parent="1">
          <mxGeometry x="630" y="630" width="30" height="30" as="geometry" />
        </mxCell>
        <mxCell id="cyoJXU-WO3Ss5TMpzt__-72" value="Stop" style="text;html=1;align=center;verticalAlign=middle;resizable=0;points=[];autosize=1;strokeColor=none;fillColor=none;" vertex="1" parent="1">
          <mxGeometry x="575" y="658" width="50" height="30" as="geometry" />
        </mxCell>
      </root>
    </mxGraphModel>
  </diagram>
</mxfile>
